<svg width="24" height="24" viewBox="0 0 24 24" fill="none" xmlns="http://www.w3.org/2000/svg">
<path fill-rule="evenodd" clip-rule="evenodd" d="M19.375 8H4.625C4.27981 8 4 8.28856 4 8.64453C4 9.00051 4.27981 9.28906 4.625 9.28906H19.375C19.7202 9.28906 20 9.00051 20 8.64453C20 8.28856 19.7202 8 19.375 8ZM19.375 12.7891H4.625C4.27981 12.7891 4 13.0776 4 13.4336C4 13.7896 4.27981 14.0781 4.625 14.0781H19.375C19.7202 14.0781 20 13.7896 20 13.4336C20 13.0776 19.7202 12.7891 19.375 12.7891ZM4.625 17.5781H19.375C19.7202 17.5781 20 17.8667 20 18.2227C20 18.5786 19.7202 18.8672 19.375 18.8672H4.625C4.27981 18.8672 4 18.5786 4 18.2227C4 17.8667 4.27981 17.5781 4.625 17.5781Z" fill="#333333"/>
</svg>
