<svg width="24" height="24" viewBox="0 0 24 24" fill="none" xmlns="http://www.w3.org/2000/svg">
<path d="M18.7364 5.26357C17.2767 3.80388 15.336 3 13.2717 3C11.2075 3 9.26674 3.80388 7.80709 5.26357C6.34744 6.72322 5.54352 8.66395 5.54352 10.7282C5.54352 12.6155 6.21585 14.3992 7.4466 15.8068L3.15462 20.0988C2.94846 20.305 2.94846 20.6392 3.15462 20.8454C3.2577 20.9484 3.3928 21 3.52787 21C3.66294 21 3.79808 20.9485 3.90112 20.8453L8.19314 16.5534C9.60069 17.7841 11.3844 18.4564 13.2717 18.4564C15.336 18.4564 17.2767 17.6526 18.7364 16.1929C20.196 14.7332 20.9999 12.7925 20.9999 10.7282C20.9999 8.66395 20.1961 6.72322 18.7364 5.26357ZM17.9899 15.4463C15.3883 18.0479 11.1553 18.0479 8.55367 15.4463C5.95211 12.8448 5.95211 8.61171 8.55367 6.01015C9.85459 4.70923 11.5629 4.05898 13.2718 4.05898C14.9802 4.05898 16.6892 4.70954 17.9899 6.01015C20.5914 8.61168 20.5914 12.8447 17.9899 15.4463Z" fill="#B7B7B7"/>
</svg>
